PathFileType	4	(X/Y/Z)	D:\TRACE\v60_Jaco2_6-2-23\BothDRS_Motion2_6-v60.trc
DataRate	CameraRate	NumFrames	NumMarkers	Units	OrigDataRate	OrigDataStartFrame	OrigNumFrames
100.00	100.00	      14	9	mm	100.00	938	      7500
Frame#	Time	front left toe			Front right toe			aft left toe			aft right toe			Arm			FL body			FR body			AL Body			AR Body			
		X1	Y1	Z1	X2	Y2	Z2	X3	Y3	Z3	X4	Y4	Z4	X5	Y5	Z5	X6	Y6	Z6	X7	Y7	Z7	X8	Y8	Z8	X9	Y9	Z9	

938	9.370	-321.73074	147.84767	-235.41212	88.96528	12.43669	-236.37872	-307.94330	17.85091	380.77597	42.89833	139.83597	395.85693	-100.08323	1212.97119	-385.33731	-192.02716	585.00262	-367.55078	-32.13466	586.52521	-365.30457	-207.87631	539.99646	577.35254	-51.39031	535.15558	580.43848	
939	9.380	-319.61694	143.63995	-235.55522	88.44588	12.09570	-236.58292	-307.39792	17.72054	380.56897	45.27289	135.59573	396.55276	-99.45819	1212.68042	-386.12317	-192.14601	584.69885	-367.86435	-32.23269	585.79913	-365.16968	-208.66650	541.00775	577.23474	-52.42167	536.32220	580.34235	
940	9.390	-316.62601	137.84517	-234.90848	87.25713	11.49946	-236.84390	-309.45712	19.11884	379.96945	46.68953	130.12593	397.17371	-99.08164	1212.35986	-386.80353	-193.11951	584.40723	-368.43018	-32.68722	585.25708	-365.37314	-209.59521	542.48163	577.14154	-53.09007	537.20648	580.25909	
941	9.400	-313.92096	131.43213	-234.74046	86.54265	11.05794	-236.96103	-310.65091	20.00575	379.76205	47.98264	123.73135	398.06165	-99.11320	1212.10828	-387.48660	-193.34457	583.54712	-368.52182	-33.12600	584.44629	-365.20056	-210.39766	543.03894	576.83484	-53.90453	538.16010	580.59814	
942	9.410	-311.03207	123.67203	-234.66566	85.82054	10.46821	-237.28316	-311.42279	20.48258	379.78619	50.28694	115.99854	399.29837	-99.08416	1211.60999	-388.54074	-193.57367	583.00323	-368.71426	-33.41011	583.64038	-365.23721	-211.58200	543.97772	576.77222	-55.10607	538.72656	580.15448	
943	9.420	-308.98682	115.17558	-234.91756	84.96142	9.88032	-237.45764	-312.09015	20.98039	379.38715	52.18768	107.20039	400.07959	-98.93075	1210.99365	-389.86804	-193.84987	582.59302	-368.94162	-32.93161	583.34528	-365.52869	-212.10478	544.37628	576.57855	-55.90522	539.31152	580.28656	
944	9.430	-306.93552	106.35791	-234.93861	84.19138	9.37745	-237.75916	-312.99115	21.61358	379.06464	54.92754	97.41537	400.76605	-98.65224	1210.48535	-391.69803	-194.33366	582.47998	-369.06842	-33.19502	583.10071	-365.69110	-212.74345	544.74933	576.46979	-56.75656	539.61066	580.33673	
945	9.440	-305.15909	97.46052	-235.12854	83.61546	8.99751	-237.90892	-313.10608	21.76218	378.80838	58.16561	86.78561	401.30408	-98.70828	1209.55408	-393.76050	-194.53014	582.30426	-369.23843	-33.99079	582.46362	-365.42374	-214.06969	545.47339	576.51111	-57.45215	539.90344	580.34943	
946	9.450	-302.62531	87.61152	-234.61304	82.60744	8.25968	-238.24472	-314.76187	22.86112	378.48441	60.42340	76.33398	401.69745	-98.75902	1208.80615	-395.93237	-194.84653	581.21008	-369.30240	-34.20861	581.66534	-365.40421	-214.64934	545.97504	576.25305	-58.21806	540.24329	580.23975	
947	9.460	-300.33221	77.69383	-233.95645	82.05629	7.84975	-238.38390	-315.40985	23.30038	378.04437	62.17000	67.28821	401.57663	-98.77113	1207.97559	-397.87219	-194.93243	580.52734	-369.40543	-34.78338	581.03326	-365.31381	-215.69101	546.45892	576.21906	-59.37473	540.92926	580.30823	
948	9.470	-298.62527	67.48795	-233.15567	81.22649	7.18002	-238.61423	-316.22501	24.22932	377.81488	62.02477	58.31608	401.66403	-98.96887	1207.38025	-399.97238	-194.50938	579.31372	-369.14798	-34.74475	580.33643	-365.57278	-216.54254	546.94531	576.19336	-59.87252	541.48969	580.26892	
949	9.480	-298.37897	57.85973	-232.63889	80.54533	6.60861	-238.67628	-316.67776	24.91882	377.62695	62.20490	49.21886	402.70084	-99.17282	1206.71533	-401.89359	-194.44322	578.59204	-369.16061	-35.03884	579.54523	-365.74115	-217.04709	547.70703	576.01190	-60.34253	542.19794	580.23120	
950	9.490	-298.17160	48.82446	-231.46640	80.11447	6.16720	-238.87932	-317.28992	25.66486	377.48392	62.10104	40.85371	403.58112	-99.51694	1206.32825	-404.02298	-195.06396	578.11115	-369.66147	-35.15401	579.01294	-365.92249	-217.17418	548.12280	575.77515	-60.98149	542.58215	580.50104	
951	9.500	-298.67575	40.12877	-230.98668	79.43685	5.62432	-239.15547	-318.04486	26.33356	377.11975	61.46916	35.05209	403.63345	-100.14667	1205.65466	-406.35345	-194.91753	577.29749	-369.72797	-35.43415	578.24731	-365.98178	-217.64465	548.35938	575.64532	-61.22955	542.89209	580.32635	
